<svg width="40" height="40" viewBox="0 0 40 40" fill="none" xmlns="http://www.w3.org/2000/svg">
<path fill-rule="evenodd" clip-rule="evenodd" d="M30.4687 0C36.25 0 40 3.75 40 9.53127V30.4687C40 36.25 36.25 40 30.4687 40H9.53127C3.75 40 0 36.25 0 30.4687V9.53127C0 3.75 3.75 0 9.53127 0H30.4687Z" fill="#242424"/>
<path fill-rule="evenodd" clip-rule="evenodd" d="M16.0332 39.802V24.3091H11V18.7378H16.0332V14.6525C16.0332 14.6525 15.6711 6.16083 23.0198 6.16083H28.9642V11.8372H25.2602C25.2602 11.8372 22.5342 11.6893 22.5045 14.5028V18.7378H28.4969L27.6327 24.3091H22.4452V40H16.0332V39.802Z" fill="#D7D7D7"/>
</svg>
