<svg width="41" height="45" viewBox="0 0 41 45" fill="none" xmlns="http://www.w3.org/2000/svg">
<rect y="5" width="40" height="40" rx="10" fill="#242424"/>
<path fill-rule="evenodd" clip-rule="evenodd" d="M2.93693 0.77771C1.70963 0.77771 0.714706 1.77263 0.714706 2.99993C0.714706 1.7766 1.70915 0.77771 2.93693 0.77771ZM14.048 40.7777H27.3814C25.6753 40.7777 25.6753 39.2038 25.6753 38.6733C25.6753 38.4555 25.6778 38.0739 25.6813 37.5638C25.6882 36.5356 25.6986 34.9853 25.6986 33.2022C25.6986 31.3422 25.0592 30.1288 24.3419 29.5099C28.7953 29.0166 33.4742 27.3305 33.4742 19.6733C33.4742 17.4966 32.698 15.7183 31.4158 14.3216C31.6236 13.8199 32.3086 11.7922 31.2197 9.04604C31.2197 9.04604 29.5425 8.50993 25.7253 11.0894C24.1269 10.6477 22.4147 10.426 20.7147 10.4188C19.0153 10.426 17.3042 10.6477 15.7086 11.0894C11.8869 8.50993 10.2075 9.04604 10.2075 9.04604C9.12137 11.7922 9.80582 13.8199 10.0142 14.3216C8.73415 15.7177 7.95304 17.4966 7.95304 19.6733C7.95304 27.3122 12.623 29.0216 17.0653 29.5255C16.493 30.0238 15.9747 30.9033 15.7953 32.1922C14.6542 32.701 11.7586 33.5827 9.97526 30.5344C9.97526 30.5344 8.91748 28.6205 6.90915 28.4799C6.90915 28.4799 4.95804 28.4549 6.77248 29.6922C6.77248 29.6922 8.0836 30.3049 8.99304 32.6094C8.99304 32.6094 10.1675 36.1672 15.7314 34.9616C15.7361 35.8552 15.7436 36.7214 15.7495 37.4059C15.7547 37.9972 15.7586 38.4528 15.7586 38.6733C15.7586 39.1999 15.1592 40.7777 14.048 40.7777ZM38.4914 40.7777H38.4925C39.7198 40.7777 40.7147 39.7828 40.7147 38.5555C40.714 39.1448 40.4795 39.7098 40.0626 40.1264C39.6458 40.543 39.0807 40.7773 38.4914 40.7777ZM40.7147 2.99993C40.7147 1.77263 39.7198 0.77771 38.4925 0.77771C39.7158 0.77771 40.7147 1.77215 40.7147 2.99993ZM7.94693 29.4633C8.08971 29.531 8.24526 29.5016 8.28971 29.4027C8.33971 29.3033 8.25748 29.1666 8.11193 29.1016C7.96748 29.0333 7.81082 29.0616 7.76748 29.1638C7.72026 29.2633 7.80193 29.3983 7.94693 29.4633ZM8.69137 30.211C8.81804 30.3505 9.00471 30.3916 9.09971 30.3027V30.3033C9.19971 30.2138 9.17415 30.0294 9.04304 29.8888C8.91193 29.7499 8.73137 29.7083 8.63304 29.7966C8.53582 29.886 8.56082 30.0722 8.69137 30.211ZM9.44193 31.2794C9.56582 31.4572 9.76637 31.536 9.8886 31.4516C10.0136 31.3644 10.0136 31.1522 9.89137 30.9716C9.76637 30.7955 9.5686 30.7194 9.44415 30.8044C9.31915 30.8894 9.31915 31.1016 9.44193 31.2794ZM10.4547 32.4844C10.6258 32.6488 10.8592 32.681 10.9686 32.5605C11.0858 32.4416 11.0325 32.2122 10.8592 32.051C10.6869 31.8883 10.4525 31.8544 10.3414 31.9749C10.2314 32.0955 10.2797 32.3233 10.4547 32.4844ZM11.9592 33.366C12.1858 33.4322 12.4108 33.3605 12.4592 33.2049H12.4597C12.5064 33.046 12.358 32.8644 12.1319 32.7966C11.9036 32.7255 11.678 32.7994 11.6314 32.9566C11.5853 33.1144 11.733 33.2972 11.9592 33.366ZM13.6719 33.6283C13.9097 33.6249 14.1014 33.4888 14.0958 33.3244C14.0958 33.161 13.9014 33.0288 13.6636 33.0333C13.4242 33.0372 13.2364 33.1722 13.2364 33.3383C13.2392 33.5005 13.433 33.6333 13.6719 33.6283ZM15.2464 33.4349C15.4825 33.391 15.6475 33.226 15.6192 33.066H15.6186C15.5892 32.9027 15.3775 32.806 15.1408 32.8472C14.9086 32.8899 14.7408 33.0544 14.7697 33.2188C14.7992 33.3783 15.0142 33.4772 15.2464 33.4349Z" fill="#D7D7D7"/>
</svg>
