<svg width="86" height="94" viewBox="0 0 86 94" fill="none" xmlns="http://www.w3.org/2000/svg">
<path d="M19.11 1.89V17.91H23.13V1.89H19.11ZM21.96 8.46V11.7H26.76V8.46H21.96ZM14.01 18.42C8.28 18.42 4.59 20.55 4.59 24.06C4.59 27.6 8.28 29.7 14.01 29.7C19.71 29.7 23.4 27.6 23.4 24.06C23.4 20.55 19.71 18.42 14.01 18.42ZM14.01 21.6C17.52 21.6 19.47 22.38 19.47 24.06C19.47 25.71 17.52 26.52 14.01 26.52C10.47 26.52 8.52 25.71 8.52 24.06C8.52 22.38 10.47 21.6 14.01 21.6ZM2.16 13.29V16.47H4.47C10.74 16.47 13.95 16.35 17.34 15.6L16.95 12.42C13.62 13.14 10.59 13.29 4.47 13.29H2.16ZM2.16 3.75V15.45H6.12V6.93H14.58V3.75H2.16ZM49.3777 1.92V22.17H53.3977V1.92H49.3777ZM34.8877 26.01V29.19H54.0877V26.01H34.8877ZM34.8877 20.22V27.66H38.8777V20.22H34.8877ZM36.8077 3.42V6.12C36.8077 9.81 34.8577 13.68 30.2077 15.27L32.2177 18.45C37.6177 16.56 40.1077 11.55 40.1077 6.12V3.42H36.8077ZM37.6177 3.42V6.12C37.6177 11.49 40.0477 16.2 45.2977 17.97L47.3377 14.79C42.7777 13.32 40.8877 9.75 40.8877 6.12V3.42H37.6177ZM62.3353 14.28V17.46H81.8653V14.28H62.3353ZM59.4253 23.28V26.55H84.5653V23.28H59.4253ZM69.9553 15.72V24.33H73.9453V15.72H69.9553ZM62.3353 3.78V15.66H66.3253V6.99H81.6553V3.78H62.3353Z" fill="white"/>
<path d="M6.87 51.44V61.67H10.95V51.44H6.87ZM16.47 51.44V61.67H20.55V51.44H16.47ZM1.2 49.34V52.55H26.37V49.34H1.2ZM13.71 34.82C7.8 34.82 3.69 37.25 3.69 41.06C3.69 44.81 7.8 47.24 13.71 47.24C19.65 47.24 23.76 44.81 23.76 41.06C23.76 37.25 19.65 34.82 13.71 34.82ZM13.71 38C17.37 38 19.65 39.08 19.65 41.06C19.65 43.01 17.37 44.09 13.71 44.09C10.08 44.09 7.77 43.01 7.77 41.06C7.77 39.08 10.08 38 13.71 38ZM33.4777 40.79V43.97H52.6477V40.79H33.4777ZM33.4777 34.34V42.23H37.4377V34.34H33.4777ZM30.3277 46.34V49.52H55.4677V46.34H30.3277ZM42.8077 51.29C36.8077 51.29 33.1477 53.15 33.1477 56.45C33.1477 59.72 36.8077 61.61 42.8077 61.61C48.8077 61.61 52.4377 59.72 52.4377 56.45C52.4377 53.15 48.8077 51.29 42.8077 51.29ZM42.8077 54.35C46.5277 54.35 48.4177 55.01 48.4177 56.45C48.4177 57.86 46.5277 58.55 42.8077 58.55C39.0877 58.55 37.1977 57.86 37.1977 56.45C37.1977 55.01 39.0877 54.35 42.8077 54.35ZM77.2753 33.92V54.68H81.2653V33.92H77.2753ZM80.1253 42.38V45.65H84.9553V42.38H80.1253ZM59.3953 36.8V39.92H75.7453V36.8H59.3953ZM67.5853 40.91C63.5653 40.91 60.7453 43.1 60.7453 46.28C60.7453 49.46 63.5653 51.62 67.5853 51.62C71.5753 51.62 74.3953 49.46 74.3953 46.28C74.3953 43.1 71.5753 40.91 67.5853 40.91ZM67.5853 43.94C69.3553 43.94 70.5853 44.78 70.5853 46.28C70.5853 47.78 69.3553 48.59 67.5853 48.59C65.8153 48.59 64.5853 47.78 64.5853 46.28C64.5853 44.78 65.8153 43.94 67.5853 43.94ZM65.5753 33.86V38.33H69.5653V33.86H65.5753ZM63.3553 58.01V61.19H82.2553V58.01H63.3553ZM63.3553 53.12V59.39H67.3453V53.12H63.3553Z" fill="white"/>
<path d="M2.16 67.66V81.1H13.17V67.66H9.45V71.56H5.91V67.66H2.16ZM5.91 74.62H9.45V77.98H5.91V74.62ZM21.09 65.92V82.63H24.87V65.92H21.09ZM17.76 72.67V75.91H22.17V72.67H17.76ZM15.21 66.4V82.51H18.93V66.4H15.21ZM5.79 83.89V87.07H20.91V93.67H24.87V83.89H5.79ZM41.4577 73.42V76.63H45.6877V73.42H41.4577ZM36.7477 67.9C33.0577 67.9 30.3877 70.78 30.3877 74.92C30.3877 79.03 33.0577 81.94 36.7477 81.94C40.4077 81.94 43.1077 79.03 43.1077 74.92C43.1077 70.78 40.4077 67.9 36.7477 67.9ZM36.7477 71.32C38.3377 71.32 39.5377 72.64 39.5377 74.92C39.5377 77.2 38.3377 78.52 36.7477 78.52C35.1277 78.52 33.9577 77.2 33.9577 74.92C33.9577 72.64 35.1277 71.32 36.7477 71.32ZM50.1877 65.89V86.56H53.9677V65.89H50.1877ZM44.6977 66.34V85.72H48.4177V66.34H44.6977ZM35.2777 90.01V93.19H54.6877V90.01H35.2777ZM35.2777 83.92V91.69H39.2677V83.92H35.2777ZM62.3353 78.7V81.88H81.8653V78.7H62.3353ZM59.4253 87.07V90.34H84.5653V87.07H59.4253ZM62.3353 68.17V80.02H66.2953V71.41H81.6553V68.17H62.3353Z" fill="white"/>
</svg>
